<svg width="25" height="25" viewBox="0 0 25 25" fill="none" xmlns="http://www.w3.org/2000/svg">
<g clip-path="url(#clip0)">
<path d="M21.812 8.10835C21.5826 7.74165 21.0927 7.65703 20.7512 7.91094L18.3744 9.69409C18.0769 9.91797 17.9939 10.33 18.1827 10.6511C18.7856 11.6775 19.0918 12.7762 19.0918 13.917C19.0918 17.552 16.1349 20.6055 12.5 20.6055C8.86509 20.6055 5.9082 17.552 5.9082 13.917C5.9082 10.5295 8.47598 7.73144 11.7676 7.36597V9.52246C11.7676 10.1296 12.4642 10.4676 12.9392 10.1083L18.7985 5.71372C19.1895 5.42129 19.1889 4.83413 18.7985 4.54214L12.9392 0.147607C12.4625 -0.21338 11.7676 0.128222 11.7676 0.733398V2.95498C6.0498 3.33335 1.51367 8.10552 1.51367 13.917C1.51367 19.9752 6.4418 25 12.5 25C18.5582 25 23.4863 19.9752 23.4863 13.917C23.4863 11.8671 22.907 9.85864 21.812 8.10835Z" fill="#969696"/>
</g>
<defs>
<clipPath id="clip0">
<rect width="25" height="25" fill="white"/>
</clipPath>
</defs>
</svg>
