<svg width="26" height="26" viewBox="0 0 26 26" fill="none" xmlns="http://www.w3.org/2000/svg">
<g clip-path="url(#clip0)">
<path d="M22.6844 8.43268C22.4459 8.05132 21.9364 7.96331 21.5813 8.22738L19.1094 10.0819C18.7999 10.3147 18.7137 10.7432 18.91 11.0772C19.5371 12.1446 19.8555 13.2872 19.8555 14.4737C19.8555 18.254 16.7803 21.4297 13 21.4297C9.21969 21.4297 6.14453 18.254 6.14453 14.4737C6.14453 10.9507 8.81502 8.0407 12.2383 7.66061V9.90336C12.2383 10.5348 12.9627 10.8863 13.4567 10.5126L19.5505 5.94227C19.957 5.63814 19.9564 5.0275 19.5505 4.72382L13.4567 0.153512C12.9609 -0.221914 12.2383 0.133352 12.2383 0.762734V3.07318C6.2918 3.46668 1.57422 8.42974 1.57422 14.4737C1.57422 20.7743 6.69947 26 13 26C19.3005 26 24.4258 20.7743 24.4258 14.4737C24.4258 12.3418 23.8233 10.253 22.6844 8.43268Z" fill="#767676"/>
</g>
<defs>
<clipPath id="clip0">
<rect width="26" height="26" fill="white"/>
</clipPath>
</defs>
</svg>
